# xmcd
#
# Track frame offsets: 
#        150
#        10474
#        24663
#        38547
#        49967
#        82063
#        94207
#        107930
#        124580
#        139629
#        162521
#        186821
#        199343
#        211410
#        224730
#        235789
#        267195
#        288363
#
# Disc length: 4027 seconds
#
# Revision: 6
# Processed by: cddbd v1.5.2PL0 Copyright (c) Steve Scherf et al.
# Submitted via: ExactAudioCopy v1.0b3
#
DISCID=100fb912
DTITLE=The Legendary Blues Singers - Play Me The Blues...
DYEAR=2001
DGENRE=Blues
TTITLE0=John Lee Hooker - Big Legs Tight Skirt
TTITLE1=Johnny Winter - Low Down Gal Of Mine
TTITLE2=Eric Clapton - Dragging' My Tale
TTITLE3=Big Joe Willams - "Bye,Bye Baby Blues"
TTITLE4=Santana - Every Day I Have The Blues
TTITLE5=Billy Boy Arnold - I Wish You Would
TTITLE6=Canned Heat - Louise
TTITLE7=Lightnin' Hopkins - Ball Of Twine
TTITLE8=Brownie McGhee and Sonny Terry - Walk On
TTITLE9=John Mayall - Baby What You Want Me To Do
TTITLE10=Jimmi Hendrix - Bleeding Heart
TTITLE11=Mississippi John Hurt - Candy Man Blues
TTITLE12=Howlin' Wolf - Dorothy Mae
TTITLE13=Tony Joe White - You Got Me Running
TTITLE14=Big Joe Williams - Sinking Blues
TTITLE15=The Animals and Sonny Boy Williamson - Nobody But You
TTITLE16=Mike Bloomfield - Cherry Red
TTITLE17=The Yardbirds (with Jeff Beck) - Jeff's Blues
EXTD=
EXTT0=
EXTT1=
EXTT2=
EXTT3=
EXTT4=
EXTT5=
EXTT6=
EXTT7=
EXTT8=
EXTT9=
EXTT10=
EXTT11=
EXTT12=
EXTT13=
EXTT14=
EXTT15=
EXTT16=
EXTT17=
PLAYORDER=
